<?xml version="1.0" encoding="UTF-8" standalone="no"?>
<!DOCTYPE svg PUBLIC "-//W3C//DTD SVG 1.1//EN" "http://www.w3.org/Graphics/SVG/1.1/DTD/svg11.dtd">
<svg width="100%" height="100%" viewBox="0 0 4859 1484" version="1.1" xmlns="http://www.w3.org/2000/svg" xmlns:xlink="http://www.w3.org/1999/xlink" xml:space="preserve" xmlns:serif="http://www.serif.com/" style="fill-rule:evenodd;clip-rule:evenodd;stroke-linejoin:round;stroke-miterlimit:2;">
    <g transform="matrix(4.16667,0,0,4.16667,0,0)">
        <g id="Artboard">
            <g id="Lightpost" transform="matrix(1.08207,0,0,1.08207,-48.3281,-18.4577)">
                <path d="M165.06,268L46.06,268L46.06,80L82.861,80L82.861,235.234L165.06,235.234L165.06,268ZM187.06,134L222.06,134L222.06,268L187.06,268L187.06,134ZM369.06,268.193C369.06,287.665 363.78,302 353.221,311.2C342.662,320.4 327.897,325 308.926,325C296.04,325 285.883,324.107 278.456,322.32C271.029,320.534 265.436,318.658 261.677,316.693L268.926,289.094C273.042,290.702 277.83,292.309 283.288,293.917C288.747,295.525 295.503,296.329 303.557,296.329C315.727,296.329 324.004,293.694 328.389,288.424C332.774,283.154 334.966,275.785 334.966,266.318L334.966,257.743L333.892,257.743C327.628,266.139 316.532,270.337 300.604,270.337C283.243,270.337 270.313,264.978 261.812,254.26C253.311,243.541 249.06,226.75 249.06,203.884C249.06,179.946 254.787,161.815 266.241,149.489C277.695,137.163 294.34,131 316.174,131C327.628,131 337.874,131.804 346.912,133.412C355.95,135.019 363.333,136.895 369.06,139.039L369.06,268.193ZM309.962,242C316.745,242 321.966,240.481 325.626,237.444C329.285,234.407 332.096,229.852 334.06,223.778L334.06,163.484C328.526,161.161 321.654,160 313.443,160C304.517,160 297.555,163.35 292.557,170.049C287.559,176.748 285.06,187.423 285.06,202.072C285.06,215.113 287.202,225.028 291.486,231.817C295.77,238.606 301.929,242 309.962,242ZM482.175,268L482.175,191.726C482.175,180.804 480.654,172.926 477.613,168.091C474.571,163.257 469.026,160.84 460.975,160.84C455.071,160.84 449.66,162.854 444.74,166.883C439.82,170.911 436.555,176.059 434.945,182.326L434.945,268L400.06,268L400.06,80L434.945,80L434.945,148.754L436.019,148.754C440.312,143.025 445.59,138.459 451.851,135.057C458.113,131.655 466.074,129.954 475.734,129.954C482.533,129.954 488.526,130.85 493.714,132.64C498.902,134.43 503.24,137.385 506.729,141.503C510.217,145.621 512.811,151.216 514.511,158.289C516.21,165.361 517.06,174.089 517.06,184.474L517.06,268L482.175,268ZM533.06,134.136L551.582,134.136L551.582,108.924L586.479,99L586.479,134.136L619.228,134.136L619.228,163.64L586.479,163.64L586.479,215.138C586.479,224.436 587.418,231.097 589.297,235.12C591.177,239.143 594.711,241.155 599.901,241.155C603.48,241.155 606.567,240.797 609.162,240.082C611.757,239.367 614.665,238.294 617.886,236.864L624.06,263.685C619.228,266.01 613.591,267.977 607.148,269.586C600.706,271.195 594.174,272 587.553,272C575.204,272 566.122,268.826 560.306,262.478C554.49,256.13 551.582,245.715 551.582,231.231L551.582,163.64L533.06,163.64L533.06,134.136ZM641.06,133.765L666.604,133.765L670.638,149.899L671.713,149.899C676.374,143.087 681.886,138.067 688.25,134.84C694.614,131.613 702.367,130 711.509,130C728.359,130 740.997,135.333 749.422,146C757.847,156.667 762.06,173.832 762.06,197.496C762.06,208.969 760.716,219.322 758.027,228.555C755.338,237.787 751.349,245.63 746.061,252.084C740.773,258.538 734.32,263.468 726.701,266.874C719.083,270.28 710.344,271.983 700.484,271.983C694.927,271.983 690.356,271.58 686.771,270.773C683.186,269.966 679.601,268.667 676.016,266.874L676.016,322L641.06,322L641.06,133.765ZM700.06,159C693.25,159 687.918,160.707 684.065,164.12C680.212,167.534 677.211,172.654 675.06,179.481L675.06,235.532C677.569,237.509 680.302,239.081 683.259,240.248C686.216,241.416 690.114,242 694.952,242C704.988,242 712.515,238.452 717.533,231.356C722.551,224.259 725.06,212.537 725.06,196.188C725.06,184.331 723.089,175.169 719.146,168.701C715.203,162.234 708.841,159 700.06,159ZM779.06,201C779.06,178.23 784.632,160.704 795.778,148.422C806.923,136.141 822.562,130 842.695,130C853.48,130 862.828,131.703 870.737,135.11C878.647,138.516 885.208,143.312 890.421,149.498C895.634,155.684 899.544,163.169 902.15,171.955C904.757,180.74 906.06,190.422 906.06,201C906.06,223.77 900.532,241.296 889.477,253.578C878.422,265.859 862.828,272 842.695,272C831.909,272 822.562,270.297 814.652,266.89C806.743,263.484 800.137,258.688 794.834,252.502C789.531,246.316 785.576,238.831 782.97,230.045C780.363,221.26 779.06,211.578 779.06,201ZM815.06,200.5C815.06,206.429 815.602,211.908 816.686,216.938C817.769,221.969 819.395,226.37 821.562,230.143C823.73,233.916 826.575,236.835 830.097,238.901C833.619,240.967 837.819,242 842.695,242C851.907,242 858.771,238.676 863.287,232.029C867.802,225.382 870.06,214.872 870.06,200.5C870.06,188.104 867.983,178.088 863.828,170.453C859.674,162.818 852.63,159 842.695,159C834.025,159 827.252,162.234 822.375,168.701C817.498,175.169 815.06,185.768 815.06,200.5ZM986.182,231.121C986.182,227.535 984.662,224.667 981.621,222.515C978.58,220.364 974.824,218.391 970.353,216.598C965.881,214.806 960.962,212.968 955.597,211.085C950.231,209.203 945.312,206.603 940.84,203.286C936.369,199.969 932.613,195.756 929.572,190.646C926.532,185.536 925.011,178.947 925.011,170.879C925.011,157.611 928.946,147.481 936.816,140.489C944.686,133.496 956.044,130 970.889,130C981.084,130 990.296,131.076 998.523,133.227C1006.75,135.379 1013.19,137.799 1017.84,140.489L1010.06,165.769C1005.95,164.155 1000.76,162.452 994.499,160.659C988.239,158.866 981.889,157.97 975.45,157.97C965.076,157.97 959.889,162.004 959.889,170.072C959.889,173.299 961.41,175.899 964.45,177.871C967.491,179.843 971.247,181.681 975.719,183.384C980.19,185.088 985.109,186.925 990.475,188.898C995.841,190.87 1000.76,193.425 1005.23,196.563C1009.7,199.7 1013.46,203.779 1016.5,208.799C1019.54,213.819 1021.06,220.274 1021.06,228.163C1021.06,241.789 1016.72,252.502 1008.05,260.301C999.373,268.1 986.361,272 969.011,272C959.531,272 950.633,270.79 942.316,268.369C933.999,265.949 927.247,263.125 922.06,259.898L931.719,233.811C935.832,236.141 941.288,238.427 948.084,240.669C954.881,242.91 961.857,244.03 969.011,244.03C974.198,244.03 978.357,243.044 981.487,241.072C984.617,239.1 986.182,235.783 986.182,231.121ZM1030.06,134.136L1048.58,134.136L1048.58,108.924L1083.48,99L1083.48,134.136L1116.23,134.136L1116.23,163.64L1083.48,163.64L1083.48,215.138C1083.48,224.436 1084.42,231.097 1086.3,235.12C1088.18,239.143 1091.71,241.155 1096.9,241.155C1100.48,241.155 1103.57,240.797 1106.16,240.082C1108.76,239.367 1111.66,238.294 1114.89,236.864L1121.06,263.685C1116.23,266.01 1110.59,267.977 1104.15,269.586C1097.71,271.195 1091.17,272 1084.55,272C1072.2,272 1063.12,268.826 1057.31,262.478C1051.49,256.13 1048.58,245.715 1048.58,231.231L1048.58,163.64L1030.06,163.64L1030.06,134.136Z" style="fill:rgb(66,67,69);fill-rule:nonzero;"/>
            </g>
            <g id="Fill-56" transform="matrix(1.08207,0,0,1.08207,-48.3281,-18.4577)">
                <path d="M231,99.478C231,111.28 222.867,121.194 211.863,124C223.96,104.167 205.5,84.172 205.5,84.172C203.354,101.695 187.04,104.167 199.137,124C188.133,121.194 180,111.28 180,99.478C180,71.903 205.5,38 205.5,38C205.5,59.805 231,71.903 231,99.478" style="fill:rgb(255,127,2);"/>
            </g>
        </g>
    </g>
</svg>
